<?xml version="1.0" standalone="no"?>
<!DOCTYPE svg PUBLIC "-//W3C//DTD SVG 20010904//EN"
 "http://www.w3.org/TR/2001/REC-SVG-20010904/DTD/svg10.dtd">
<svg version="1.0" xmlns="http://www.w3.org/2000/svg"
 viewBox="0 0 2000.000000 1500.000000"
 preserveAspectRatio="xMidYMid meet">

<g transform="translate(0.000000,1500.000000) scale(0.100000,-0.100000)"
fill="#000000" stroke="none">
<path d="M15146 9290 c-3 -8 -26 -91 -51 -185 -54 -199 -74 -244 -132 -303
-59 -59 -112 -81 -325 -138 -99 -26 -177 -49 -172 -51 5 -1 91 -25 192 -52
100 -28 201 -60 223 -72 53 -27 122 -97 149 -153 19 -39 70 -212 70 -237 0 -5
-49 -9 -110 -9 l-110 0 0 -75 0 -75 135 0 135 0 0 -645 0 -645 -150 0 -150 0
0 -75 0 -75 430 0 430 0 0 75 0 75 -130 0 -130 0 0 720 0 720 -125 0 c-69 0
-125 4 -125 8 0 5 6 31 14 58 8 27 21 74 30 105 l16 56 47 7 c87 11 136 56
158 144 l12 47 169 46 c93 25 175 48 183 50 8 3 -66 27 -165 53 -98 26 -198
56 -221 66 -54 24 -139 103 -166 155 -11 22 -44 126 -73 230 -29 105 -55 183
-58 175z"/>
<path d="M3920 8658 c-6 -13 -192 -468 -413 -1013 l-403 -990 -117 -3 -117 -3
0 -74 0 -75 410 0 411 0 -3 73 -3 72 -193 3 c-179 2 -193 4 -188 20 4 9 52
131 108 270 l102 252 471 0 471 0 103 -257 c57 -142 105 -264 108 -270 4 -10
-38 -13 -191 -13 l-196 0 0 -75 0 -75 485 0 485 0 0 75 0 75 -118 0 -118 0
-339 833 c-186 457 -372 914 -413 1015 l-74 182 -129 0 c-125 0 -130 -1 -139
-22z m273 -804 c109 -273 196 -498 194 -500 -2 -2 -184 -3 -405 -2 l-401 3
202 498 c111 273 204 497 207 497 3 0 94 -223 203 -496z"/>
<path d="M6186 8104 c-163 -39 -299 -154 -376 -316 l-30 -63 0 183 0 182 -275
0 -275 0 0 -75 0 -75 135 0 135 0 0 -950 0 -950 -145 0 -145 0 0 -75 0 -75
540 0 540 0 0 75 0 75 -245 0 -245 0 0 398 0 397 32 -65 c42 -86 161 -207 240
-243 84 -40 170 -57 289 -57 431 0 689 309 689 826 0 191 -30 334 -97 469 -86
172 -229 289 -411 336 -91 23 -267 25 -356 3z m179 -168 c161 -43 279 -177
330 -373 41 -163 39 -392 -6 -554 -76 -276 -296 -418 -544 -353 -169 43 -292
191 -342 409 -27 117 -24 369 6 480 43 162 127 288 231 348 92 53 224 70 325
43z"/>
<path d="M8110 8113 c-169 -28 -326 -148 -410 -312 l-39 -76 -1 183 0 182
-275 0 -275 0 0 -75 0 -75 135 0 135 0 0 -950 0 -950 -145 0 -145 0 0 -75 0
-75 540 0 540 0 0 75 0 75 -245 0 -245 0 0 398 1 397 37 -70 c21 -40 65 -98
102 -136 111 -113 232 -158 423 -159 198 0 343 55 467 180 129 129 201 301
219 528 39 485 -150 832 -505 922 -73 19 -239 26 -314 13z m145 -178 c156 -41
271 -175 327 -382 18 -66 21 -106 21 -258 0 -201 -13 -274 -74 -403 -39 -80
-132 -178 -201 -210 -225 -104 -474 -11 -583 220 -61 129 -70 180 -70 393 0
213 9 264 70 393 96 204 299 302 510 247z"/>
<path d="M9903 8110 c-174 -32 -278 -125 -334 -299 l-18 -56 0 168 -1 167
-265 0 -265 0 0 -75 0 -75 135 0 135 0 0 -645 0 -645 -150 0 -150 0 0 -75 0
-75 410 0 411 0 -3 73 -3 72 -112 3 -113 3 0 432 c0 238 5 472 10 520 20 191
120 301 286 315 92 7 158 -12 209 -62 27 -25 47 -56 54 -81 7 -27 11 -219 11
-582 l0 -543 -110 0 -110 0 0 -75 0 -75 370 0 370 0 0 75 0 75 -111 0 -110 0
3 503 c3 457 5 507 22 553 28 80 82 144 151 179 52 27 68 30 149 30 78 0 97
-3 136 -25 49 -28 84 -73 100 -129 6 -22 10 -244 10 -573 l0 -538 -110 0 -110
0 0 -75 0 -75 375 0 375 0 0 75 0 75 -115 0 -115 0 0 498 c0 529 -7 646 -41
738 -61 163 -259 257 -472 226 -164 -25 -258 -87 -322 -214 -19 -39 -35 -78
-36 -87 0 -9 -11 12 -23 47 -13 34 -36 80 -51 102 -36 52 -117 107 -194 131
-74 23 -205 32 -278 19z"/>
<path d="M13855 8109 c-91 -13 -154 -35 -220 -74 -83 -50 -111 -79 -148 -155
-29 -58 -32 -75 -35 -171 -6 -155 25 -237 120 -325 96 -88 200 -130 519 -209
237 -58 314 -90 374 -156 41 -46 59 -107 51 -173 -17 -148 -127 -227 -316
-228 -43 0 -102 5 -132 12 -179 41 -339 189 -415 383 l-26 67 -79 0 -78 0 0
-290 0 -290 85 0 85 0 0 163 0 162 32 -55 c17 -30 61 -85 97 -121 266 -266
817 -229 961 64 41 86 57 194 42 292 -15 97 -46 157 -114 222 -95 89 -206 135
-483 199 -281 66 -351 92 -412 156 -41 43 -54 79 -54 150 -1 81 16 121 66 166
58 51 132 74 237 74 224 -1 407 -129 494 -344 l33 -83 81 -3 80 -3 0 276 0
275 -85 0 -85 0 0 -152 0 -153 -29 50 c-88 154 -236 247 -435 274 -87 12 -125
12 -211 0z"/>
<path d="M16359 8105 c-250 -50 -451 -218 -535 -449 -58 -160 -74 -397 -40
-581 76 -403 382 -636 801 -611 125 7 198 26 300 79 188 98 322 313 337 542
l3 50 -69 0 -70 0 -17 -68 c-49 -195 -181 -331 -357 -368 -82 -17 -233 -7
-304 20 -139 53 -249 179 -304 347 -28 85 -29 97 -29 269 0 143 4 193 18 244
75 265 260 411 522 411 183 0 317 -64 397 -190 l28 -44 -62 -13 c-105 -21
-153 -72 -152 -159 0 -66 22 -100 84 -131 72 -37 177 -26 233 25 48 43 70 135
56 227 -31 194 -205 348 -452 399 -92 19 -294 20 -388 1z"/>
<path d="M11530 8015 l0 -75 114 0 114 0 4 -537 c5 -579 6 -590 61 -703 28
-57 110 -141 166 -170 67 -34 186 -60 273 -60 268 0 447 116 531 345 l26 70 0
-192 1 -193 265 0 265 0 0 75 0 75 -130 0 -130 0 0 720 0 720 -285 0 -285 0 0
-75 0 -75 130 0 130 0 0 -453 c0 -483 -3 -514 -51 -609 -34 -67 -113 -142
-182 -174 -57 -27 -71 -29 -177 -29 -129 0 -166 13 -226 77 -73 77 -69 34 -72
721 l-3 617 -269 0 -270 0 0 -75z"/>
</g>
</svg>
